# xmcd
#
# Track frame offsets:
#	150
#	11900
#	22170
#	37030
#	48680
#	63905
#	77152
#	91492
#	105325
#	119585
#	132287
#	146537
#	157267
#	167740
#	180890
#	193160
#	203457
#	213687
#	227312
#	239715
#	257655
#	281050
#	294327
#	304692
#	317690
#	329855
#
# Disc length: 4562 seconds
#
# Revision: 1
# Processed by: cddbd v1.5.1PL0 Copyright (c) Steve Scherf et al.
# Submitted via: audiograbber 1.83.01
#
DISCID=8711d01a
DTITLE=Muddy Waters - The King Of Chicago Blues - Disc 3: They Call Me Muddy Wa
DTITLE=ters
DYEAR=1994
DGENRE=Blues
TTITLE0=You're Gonna Miss Me
TTITLE1=Mean Red Spider
TTITLE2=Streamline Woman
TTITLE3=Last Time I Fool Around With You
TTITLE4=They Call Me Muddy Waters
TTITLE5=All Night Long
TTITLE6=Blow Wind Blow
TTITLE7=This Pain
TTITLE8=My Eyes Keep Me In Trouble
TTITLE9=I Live The Life I Love
TTITLE10=Rock Me
TTITLE11=Look What You Done
TTITLE12=Evil
TTITLE13=Born Lover
TTITLE14=She's Into Something
TTITLE15=I'm Your Doctor
TTITLE16=Messin' With The Man
TTITLE17=Going Home
TTITLE18=My Love Strikes Like Lightning
TTITLE19=My Home Is In the Delta
TTITLE20=My Captain
TTITLE21=You Can't Lose What You Ain't Never Had
TTITLE22=My John The Conquer Root
TTITLE23=My dog Can't Bark
TTITLE24=Going Back To Memphis
TTITLE25=When The Eagle Flies
EXTD=
EXTT0=
EXTT1=
EXTT2=
EXTT3=
EXTT4=
EXTT5=
EXTT6=
EXTT7=
EXTT8=
EXTT9=
EXTT10=
EXTT11=
EXTT12=
EXTT13=
EXTT14=
EXTT15=
EXTT16=
EXTT17=
EXTT18=
EXTT19=
EXTT20=
EXTT21=
EXTT22=
EXTT23=
EXTT24=
EXTT25=
PLAYORDER=
